<svg width="517" height="522" viewBox="0 0 517 522" fill="none" xmlns="http://www.w3.org/2000/svg">
<path d="M161 191.5C153.667 185.833 142.8 171.2 150 148C153.477 136.796 167 128 167 128M167 128C172.466 120 161 102.5 167 80.5001C179.825 33.4766 216 15.5001 239 15.5001L260.5 15.5C279.5 15.5 276.5 44.5001 260.5 86.5001C249.5 102.5 228 121 196 128H167Z" stroke="#26AEFE" stroke-width="30" stroke-miterlimit="3.8637" stroke-linecap="round"/>
<path d="M301 227C292.716 227 286 233.716 286 242C286 250.284 292.716 257 301 257V227ZM446.981 242V257H448.487L449.964 256.701L446.981 242ZM496.961 201.427L483.853 194.135L483.292 195.144L482.892 196.227L496.961 201.427ZM482.611 134.631L493.527 124.343L493.527 124.343L482.611 134.631ZM453.909 120.282L454.875 105.313L454.875 105.313L453.909 120.282ZM396.012 141.063L406.867 151.415L396.012 141.063ZM364.987 184.65C366.652 192.766 374.581 197.995 382.696 196.33C390.811 194.665 396.04 186.737 394.375 178.621L364.987 184.65ZM301 257H446.981V227H301V257ZM449.964 256.701C458.267 255.016 470.556 249.457 481.683 241.674C492.829 233.877 505.303 222.125 511.031 206.628L482.892 196.227C480.207 203.49 473.382 210.87 464.487 217.092C455.572 223.328 447.077 226.675 443.999 227.3L449.964 256.701ZM496.961 201.427C510.07 208.719 510.074 208.711 510.078 208.703C510.08 208.7 510.085 208.692 510.088 208.687C510.094 208.675 510.101 208.663 510.108 208.651C510.121 208.626 510.136 208.599 510.152 208.569C510.184 208.511 510.22 208.444 510.26 208.369C510.34 208.219 510.435 208.035 510.545 207.818C510.763 207.385 511.037 206.82 511.348 206.132C511.968 204.756 512.741 202.872 513.513 200.541C515.051 195.896 516.629 189.356 516.922 181.475C517.523 165.287 512.63 144.614 493.527 124.343L471.694 144.918C484.98 159.017 487.263 171.743 486.942 180.36C486.774 184.882 485.866 188.597 485.035 191.106C484.622 192.353 484.238 193.27 483.998 193.802C483.879 194.067 483.797 194.233 483.767 194.292C483.752 194.321 483.751 194.323 483.764 194.298C483.771 194.285 483.782 194.265 483.797 194.238C483.804 194.224 483.812 194.209 483.822 194.192C483.826 194.184 483.831 194.175 483.837 194.165C483.839 194.16 483.843 194.153 483.845 194.151C483.849 194.143 483.853 194.135 496.961 201.427ZM493.527 124.343C484.679 114.955 471.986 106.417 454.875 105.313L452.944 135.251C460.377 135.73 466.409 139.31 471.694 144.918L493.527 124.343ZM454.875 105.313C437.888 104.217 410.017 104.641 385.156 130.711L406.867 151.415C422.584 134.934 439.25 134.368 452.944 135.251L454.875 105.313ZM385.156 130.711C365.831 150.977 362.596 172.995 364.987 184.65L394.375 178.621C394.38 178.643 394.23 177.784 394.355 176.06C394.473 174.424 394.822 172.265 395.602 169.731C397.144 164.717 400.375 158.223 406.867 151.415L385.156 130.711Z" fill="#26AEFE"/>
<path d="M61.5 375.5C53.2157 375.5 46.5 368.784 46.5 360.5C46.5 352.216 53.2157 345.5 61.5 345.5V375.5ZM333 360.5V345.5H334.066L335.121 345.651L333 360.5ZM378 399L364.752 406.036L364.273 405.132L363.92 404.172L378 399ZM363.445 468.129L374.393 478.383L374.393 478.383L363.445 468.129ZM334.454 482.713L335.425 497.682L335.425 497.682L334.454 482.713ZM275.971 461.592L286.859 451.273L275.971 461.592ZM244.779 417.357C246.434 409.24 254.356 404.001 262.473 405.656C270.59 407.311 275.829 415.233 274.174 423.35L244.779 417.357ZM61.5 345.5H333V375.5H61.5V345.5ZM335.121 345.651C362.01 349.492 381.833 365.931 392.08 393.828L363.92 404.172C357.172 385.802 345.99 377.508 330.879 375.349L335.121 345.651ZM378 399C391.248 391.964 391.252 391.972 391.256 391.98C391.257 391.983 391.262 391.991 391.264 391.996C391.27 392.007 391.277 392.019 391.283 392.031C391.296 392.056 391.31 392.083 391.325 392.112C391.355 392.17 391.39 392.237 391.428 392.313C391.505 392.464 391.598 392.651 391.704 392.871C391.917 393.312 392.185 393.89 392.49 394.597C393.099 396.009 393.861 397.949 394.623 400.349C396.141 405.129 397.7 411.86 397.982 419.942C398.56 436.491 393.711 457.757 374.393 478.383L352.497 457.876C365.896 443.569 368.324 430.27 368 420.988C367.832 416.154 366.895 412.152 366.03 409.429C365.601 408.077 365.199 407.073 364.943 406.478C364.815 406.182 364.725 405.991 364.688 405.914C364.669 405.875 364.664 405.866 364.674 405.885C364.679 405.895 364.688 405.913 364.701 405.938C364.707 405.95 364.715 405.965 364.724 405.981C364.728 405.989 364.732 405.998 364.737 406.007C364.74 406.011 364.743 406.019 364.745 406.021C364.748 406.028 364.752 406.036 378 399ZM374.393 478.383C365.485 487.895 352.691 496.561 335.425 497.682L333.482 467.745C341.009 467.256 347.129 463.607 352.497 457.876L374.393 478.383ZM335.425 497.682C318.261 498.796 290.147 498.356 265.084 471.91L286.859 451.273C302.783 468.076 319.656 468.642 333.482 467.745L335.425 497.682ZM265.084 471.91C245.607 451.358 242.389 429.08 244.779 417.357L274.174 423.35C274.183 423.306 274.137 423.528 274.111 424.037C274.087 424.528 274.086 425.203 274.147 426.045C274.269 427.734 274.626 429.953 275.42 432.551C276.993 437.694 280.279 444.33 286.859 451.273L265.084 471.91Z" fill="#26AEFE"/>
<path d="M15.5 301.5H80.5" stroke="#26AEFE" stroke-width="30" stroke-linecap="round"/>
<path d="M137.5 301.5H368.5" stroke="#26AEFE" stroke-width="30" stroke-linecap="round"/>
<path d="M197 240H245" stroke="#26AEFE" stroke-width="30" stroke-linecap="round"/>
<path d="M15 463H132" stroke="#26AEFE" stroke-width="30" stroke-linecap="round"/>
<path d="M95 423C95 423 134.5 450.5 134.5 463C134.5 475.5 92.5 506.5 92.5 506.5" stroke="#26AEFE" stroke-width="30" stroke-linecap="round"/>
</svg>
